<mxfile host="app.diagrams.net" agent="Mozilla/5.0 (Windows NT 10.0; Win64; x64) AppleWebKit/537.36 (KHTML, like Gecko) Chrome/138.0.0.0 Safari/537.36" version="28.0.7">
  <diagram name="Page-1" id="PFwjI5xz76DF85EKXyYI">
    <mxGraphModel dx="2037" dy="1622" grid="1" gridSize="10" guides="1" tooltips="1" connect="1" arrows="1" fold="1" page="1" pageScale="1" pageWidth="4681" pageHeight="3300" background="#FFFFFF" math="0" shadow="0">
      <root>
        <mxCell id="0" />
        <mxCell id="1" parent="0" />
        <mxCell id="Izek-PB7fgDzVprNoVY3-15" value="&lt;h2&gt;&lt;span style=&quot;font-weight: normal;&quot;&gt;SALE&lt;/span&gt;&lt;/h2&gt;" style="whiteSpace=wrap;html=1;align=center;strokeColor=#FFFFFF;fontColor=#FFFFFF;fillColor=#182E3E;" parent="1" vertex="1">
          <mxGeometry x="1163.5" y="533" width="143" height="52" as="geometry" />
        </mxCell>
        <mxCell id="Izek-PB7fgDzVprNoVY3-16" value="&lt;h2&gt;&lt;span style=&quot;font-weight: normal;&quot;&gt;CUSTOMER&lt;/span&gt;&lt;/h2&gt;" style="whiteSpace=wrap;html=1;align=center;strokeColor=#FFFFFF;fontColor=#FFFFFF;fillColor=#182E3E;" parent="1" vertex="1">
          <mxGeometry x="692.9" y="533" width="143" height="52" as="geometry" />
        </mxCell>
        <mxCell id="Izek-PB7fgDzVprNoVY3-17" value="&lt;h2&gt;&lt;font face=&quot;Helvetica&quot; style=&quot;font-weight: normal;&quot;&gt;REPAIR&lt;/font&gt;&lt;/h2&gt;" style="whiteSpace=wrap;html=1;align=center;strokeColor=#FFFFFF;fontColor=#FFFFFF;fillColor=#182E3E;" parent="1" vertex="1">
          <mxGeometry x="692.9" y="260" width="143" height="52" as="geometry" />
        </mxCell>
        <mxCell id="Izek-PB7fgDzVprNoVY3-22" value="&lt;h2&gt;&lt;span style=&quot;font-weight: normal;&quot;&gt;REQUESTS&lt;/span&gt;&lt;/h2&gt;" style="shape=rhombus;perimeter=rhombusPerimeter;whiteSpace=wrap;html=1;align=center;strokeColor=#FFFFFF;fontColor=#FFFFFF;fillColor=#182E3E;" parent="1" vertex="1">
          <mxGeometry x="676" y="377" width="176.8" height="90.67" as="geometry" />
        </mxCell>
        <mxCell id="Izek-PB7fgDzVprNoVY3-24" value="1" style="endArrow=none;html=1;rounded=0;strokeColor=#000000;exitX=0.5;exitY=1;exitDx=0;exitDy=0;entryX=0.5;entryY=0;entryDx=0;entryDy=0;" parent="1" source="Izek-PB7fgDzVprNoVY3-22" target="Izek-PB7fgDzVprNoVY3-16" edge="1">
          <mxGeometry relative="1" as="geometry" />
        </mxCell>
        <mxCell id="Izek-PB7fgDzVprNoVY3-31" value="N" style="shape=link;html=1;rounded=0;strokeColor=#000000;exitX=0.5;exitY=0;exitDx=0;exitDy=0;entryX=0.5;entryY=1;entryDx=0;entryDy=0;" parent="1" source="Izek-PB7fgDzVprNoVY3-22" target="Izek-PB7fgDzVprNoVY3-17" edge="1">
          <mxGeometry relative="1" as="geometry" />
        </mxCell>
        <mxCell id="Izek-PB7fgDzVprNoVY3-35" value="&lt;h2&gt;&lt;span style=&quot;font-weight: 400;&quot;&gt;MAKES_A&lt;/span&gt;&lt;/h2&gt;" style="shape=rhombus;perimeter=rhombusPerimeter;whiteSpace=wrap;html=1;align=center;strokeColor=#FFFFFF;fontColor=#FFFFFF;fillColor=#182E3E;" parent="1" vertex="1">
          <mxGeometry x="910" y="507" width="202.8" height="104" as="geometry" />
        </mxCell>
        <mxCell id="Izek-PB7fgDzVprNoVY3-36" value="N" style="endArrow=none;html=1;rounded=0;strokeColor=#000000;entryX=1;entryY=0.5;entryDx=0;entryDy=0;exitX=0;exitY=0.5;exitDx=0;exitDy=0;" parent="1" source="Izek-PB7fgDzVprNoVY3-35" target="Izek-PB7fgDzVprNoVY3-16" edge="1">
          <mxGeometry relative="1" as="geometry" />
        </mxCell>
        <mxCell id="Izek-PB7fgDzVprNoVY3-38" value="1" style="shape=link;html=1;rounded=0;strokeColor=#000000;width=4;exitX=1;exitY=0.5;exitDx=0;exitDy=0;entryX=0;entryY=0.5;entryDx=0;entryDy=0;" parent="1" source="Izek-PB7fgDzVprNoVY3-35" target="Izek-PB7fgDzVprNoVY3-15" edge="1">
          <mxGeometry relative="1" as="geometry" />
        </mxCell>
        <mxCell id="Izek-PB7fgDzVprNoVY3-41" value="&lt;h2&gt;&lt;span style=&quot;font-weight: 400;&quot;&gt;INSTRUMENT&lt;/span&gt;&lt;/h2&gt;" style="whiteSpace=wrap;html=1;align=center;strokeColor=#FFFFFF;fontColor=#FFFFFF;fillColor=#182E3E;" parent="1" vertex="1">
          <mxGeometry x="1306.5" y="767" width="156" height="56.73" as="geometry" />
        </mxCell>
        <mxCell id="Izek-PB7fgDzVprNoVY3-42" value="&lt;h2&gt;&lt;span style=&quot;font-weight: 400;&quot;&gt;INCLUDES&lt;/span&gt;&lt;/h2&gt;" style="shape=rhombus;perimeter=rhombusPerimeter;whiteSpace=wrap;html=1;align=center;strokeColor=#FFFFFF;fontColor=#FFFFFF;fillColor=#182E3E;" parent="1" vertex="1">
          <mxGeometry x="1300" y="622" width="169" height="86.67" as="geometry" />
        </mxCell>
        <mxCell id="Izek-PB7fgDzVprNoVY3-50" value="1" style="shape=link;html=1;rounded=0;strokeColor=#000000;entryX=0;entryY=0.5;entryDx=0;entryDy=0;exitX=1;exitY=0.5;exitDx=0;exitDy=0;" parent="1" source="Izek-PB7fgDzVprNoVY3-15" target="Izek-PB7fgDzVprNoVY3-42" edge="1">
          <mxGeometry relative="1" as="geometry" />
        </mxCell>
        <mxCell id="Izek-PB7fgDzVprNoVY3-53" value="N" style="endArrow=none;html=1;rounded=0;strokeColor=#000000;entryX=0.5;entryY=0;entryDx=0;entryDy=0;exitX=0.5;exitY=1;exitDx=0;exitDy=0;" parent="1" source="Izek-PB7fgDzVprNoVY3-42" target="Izek-PB7fgDzVprNoVY3-41" edge="1">
          <mxGeometry relative="1" as="geometry" />
        </mxCell>
        <mxCell id="Izek-PB7fgDzVprNoVY3-57" value="&lt;h2&gt;&lt;span style=&quot;font-weight: 400;&quot;&gt;COMPANY&lt;/span&gt;&lt;/h2&gt;" style="whiteSpace=wrap;html=1;align=center;strokeColor=#FFFFFF;fontColor=#FFFFFF;fillColor=#182E3E;" parent="1" vertex="1">
          <mxGeometry x="910" y="871" width="143" height="52" as="geometry" />
        </mxCell>
        <mxCell id="Izek-PB7fgDzVprNoVY3-58" value="&lt;h2&gt;&lt;span style=&quot;font-weight: 400;&quot;&gt;MANUFACTURED_BY&lt;/span&gt;&lt;/h2&gt;" style="shape=rhombus;perimeter=rhombusPerimeter;whiteSpace=wrap;html=1;align=center;strokeColor=#FFFFFF;fontColor=#FFFFFF;fillColor=#182E3E;" parent="1" vertex="1">
          <mxGeometry x="1079" y="832" width="253.5" height="130" as="geometry" />
        </mxCell>
        <mxCell id="Izek-PB7fgDzVprNoVY3-61" value="N" style="shape=link;html=1;rounded=0;strokeColor=#000000;width=0;exitX=0.5;exitY=1;exitDx=0;exitDy=0;entryX=0;entryY=0.5;entryDx=0;entryDy=0;" parent="1" source="Izek-PB7fgDzVprNoVY3-41" target="Izek-PB7fgDzVprNoVY3-58" edge="1">
          <mxGeometry relative="1" as="geometry">
            <Array as="points">
              <mxPoint x="1385" y="897" />
            </Array>
          </mxGeometry>
        </mxCell>
        <mxCell id="Izek-PB7fgDzVprNoVY3-66" value="1" style="shape=link;html=1;rounded=0;strokeColor=#000000;entryX=0;entryY=0.5;entryDx=0;entryDy=0;exitX=1;exitY=0.5;exitDx=0;exitDy=0;" parent="1" source="Izek-PB7fgDzVprNoVY3-57" target="Izek-PB7fgDzVprNoVY3-58" edge="1">
          <mxGeometry relative="1" as="geometry" />
        </mxCell>
        <mxCell id="Izek-PB7fgDzVprNoVY3-68" value="&lt;h2&gt;&lt;span style=&quot;font-weight: 400;&quot;&gt;EMPLOYEE&lt;/span&gt;&lt;/h2&gt;" style="whiteSpace=wrap;html=1;align=center;strokeColor=#FFFFFF;fontColor=#FFFFFF;fillColor=#182E3E;" parent="1" vertex="1">
          <mxGeometry x="637" y="622" width="143" height="52" as="geometry" />
        </mxCell>
        <mxCell id="Izek-PB7fgDzVprNoVY3-70" value="&lt;h2&gt;&lt;span style=&quot;font-weight: 400;&quot;&gt;PERFORMS&lt;/span&gt;&lt;/h2&gt;" style="shape=rhombus;perimeter=rhombusPerimeter;whiteSpace=wrap;html=1;align=center;strokeColor=#FFFFFF;fontColor=#FFFFFF;fillColor=#182E3E;" parent="1" vertex="1">
          <mxGeometry x="364" y="377" width="176.8" height="90.67" as="geometry" />
        </mxCell>
        <mxCell id="Izek-PB7fgDzVprNoVY3-76" value="N" style="shape=link;html=1;rounded=0;strokeColor=#000000;exitX=1;exitY=0.5;exitDx=0;exitDy=0;entryX=0;entryY=0.5;entryDx=0;entryDy=0;" parent="1" source="Izek-PB7fgDzVprNoVY3-70" target="Izek-PB7fgDzVprNoVY3-17" edge="1">
          <mxGeometry relative="1" as="geometry">
            <Array as="points">
              <mxPoint x="764" y="422" />
              <mxPoint x="764" y="340" />
            </Array>
          </mxGeometry>
        </mxCell>
        <mxCell id="Izek-PB7fgDzVprNoVY3-78" value="&lt;h3&gt;&lt;span style=&quot;font-weight: normal;&quot;&gt;IS A&lt;/span&gt;&lt;/h3&gt;" style="triangle;whiteSpace=wrap;html=1;strokeColor=#FFFFFF;align=center;verticalAlign=middle;fontColor=#FFFFFF;fillColor=#182E3E;direction=south;" parent="1" vertex="1">
          <mxGeometry x="663.23" y="728" width="90.54" height="69.73" as="geometry" />
        </mxCell>
        <mxCell id="Izek-PB7fgDzVprNoVY3-79" value="&lt;h2&gt;&lt;span style=&quot;font-weight: 400;&quot;&gt;REPAIR_TECHNICIAN&lt;/span&gt;&lt;/h2&gt;" style="whiteSpace=wrap;html=1;align=center;strokeColor=#FFFFFF;fontColor=#FFFFFF;fillColor=#182E3E;" parent="1" vertex="1">
          <mxGeometry x="454" y="858" width="208" height="52" as="geometry" />
        </mxCell>
        <mxCell id="Izek-PB7fgDzVprNoVY3-80" value="&lt;h2&gt;&lt;span style=&quot;font-weight: 400;&quot;&gt;SALES_ASSOCIATE&lt;/span&gt;&lt;/h2&gt;" style="whiteSpace=wrap;html=1;align=center;strokeColor=#FFFFFF;fontColor=#FFFFFF;fillColor=#182E3E;" parent="1" vertex="1">
          <mxGeometry x="689" y="858" width="195" height="52" as="geometry" />
        </mxCell>
        <mxCell id="Izek-PB7fgDzVprNoVY3-83" value="" style="endArrow=none;html=1;rounded=0;strokeColor=#000000;entryX=0.5;entryY=1;entryDx=0;entryDy=0;exitX=0.5;exitY=0;exitDx=0;exitDy=0;" parent="1" source="Izek-PB7fgDzVprNoVY3-68" target="Izek-PB7fgDzVprNoVY3-78" edge="1">
          <mxGeometry relative="1" as="geometry" />
        </mxCell>
        <mxCell id="Izek-PB7fgDzVprNoVY3-84" value="" style="endArrow=none;html=1;rounded=0;strokeColor=#000000;entryX=0.5;entryY=1;entryDx=0;entryDy=0;exitX=0.5;exitY=0;exitDx=0;exitDy=0;" parent="1" source="Izek-PB7fgDzVprNoVY3-79" target="Izek-PB7fgDzVprNoWY3-78" edge="1">
          <mxGeometry relative="1" as="geometry" />
        </mxCell>
        <mxCell id="Izek-PB7fgDzVprNoVY3-85" value="" style="endArrow=none;html=1;rounded=0;strokeColor=#000000;entryX=0.5;entryY=1;entryDx=0;entryDy=0;exitX=0.5;exitY=0;exitDx=0;exitDy=0;" parent="1" source="Izek-PB7fgDzVprNoVY3-80" target="Izek-PB7fgDzVprNoVY3-78" edge="1">
          <mxGeometry relative="1" as="geometry" />
        </mxCell>
        <mxCell id="G7WZexkPzq9MRGBm2pqB-98" value="1" style="endArrow=none;html=1;rounded=0;exitX=0;exitY=0.5;exitDx=0;exitDy=0;strokeColor=#000000;entryX=0;entryY=0.5;entryDx=0;entryDy=0;shape=link;" edge="1" parent="1" source="Izek-PB7fgDzVprNoVY3-70" target="Izek-PB7fgDzVprNoVY3-79">
          <mxGeometry relative="1" as="geometry">
            <Array as="points">
              <mxPoint x="364" y="884" />
            </Array>
          </mxGeometry>
        </mxCell>
        <mxCell id="ATTR-INST-1" value="&lt;u&gt;Serial_Number&lt;/u&gt;" style="ellipse;whiteSpace=wrap;html=1;align=center;fontColor=#000000;fillColor=#dae8fc;strokeColor=#6c8ebf;" vertex="1" parent="1">
          <mxGeometry x="1200" y="680" width="100" height="40" as="geometry" />
        </mxCell>
        <mxCell id="EDGE-INST-1" value="" style="endArrow=none;html=1;rounded=0;strokeColor=#666666;" edge="1" parent="1" source="ATTR-INST-1" target="Izek-PB7fgDzVprNoVY3-41" />
        <mxCell id="ATTR-INST-2" value="Instrument_Type" style="ellipse;whiteSpace=wrap;html=1;align=center;fontColor=#000000;fillColor=#dae8fc;strokeColor=#6c8ebf;" vertex="1" parent="1">
          <mxGeometry x="1460" y="680" width="110" height="40" as="geometry" />
        </mxCell>
        <mxCell id="EDGE-INST-2" value="" style="endArrow=none;html=1;rounded=0;strokeColor=#666666;" edge="1" parent="1" source="ATTR-INST-2" target="Izek-PB7fgDzVprNoVY3-41" />
        <mxCell id="ATTR-INST-3" value="Model_Name" style="ellipse;whiteSpace=wrap;html=1;align=center;fontColor=#000000;fillColor=#dae8fc;strokeColor=#6c8ebf;" vertex="1" parent="1">
          <mxGeometry x="1500" y="760" width="100" height="40" as="geometry" />
        </mxCell>
        <mxCell id="EDGE-INST-3" value="" style="endArrow=none;html=1;rounded=0;strokeColor=#666666;" edge="1" parent="1" source="ATTR-INST-3" target="Izek-PB7fgDzVprNoVY3-41" />
        <mxCell id="ATTR-INST-4" value="Color" style="ellipse;whiteSpace=wrap;html=1;align=center;fontColor=#000000;fillColor=#dae8fc;strokeColor=#6c8ebf;" vertex="1" parent="1">
          <mxGeometry x="1500" y="830" width="100" height="40" as="geometry" />
        </mxCell>
        <mxCell id="EDGE-INST-4" value="" style="endArrow=none;html=1;rounded=0;strokeColor=#666666;" edge="1" parent="1" source="ATTR-INST-4" target="Izek-PB7fgDzVprNoVY3-41" />
        <mxCell id="ATTR-INST-5" value="MRP" style="ellipse;whiteSpace=wrap;html=1;align=center;fontColor=#000000;fillColor=#dae8fc;strokeColor=#6c8ebf;" vertex="1" parent="1">
          <mxGeometry x="1460" y="890" width="100" height="40" as="geometry" />
        </mxCell>
        <mxCell id="EDGE-INST-5" value="" style="endArrow=none;html=1;rounded=0;strokeColor=#666666;" edge="1" parent="1" source="ATTR-INST-5" target="Izek-PB7fgDzVprNoVY3-41" />
        <mxCell id="ATTR-INST-6" value="Purchase_Cost" style="ellipse;whiteSpace=wrap;html=1;align=center;fontColor=#000000;fillColor=#dae8fc;strokeColor=#6c8ebf;" vertex="1" parent="1">
          <mxGeometry x="1200" y="890" width="100" height="40" as="geometry" />
        </mxCell>
        <mxCell id="EDGE-INST-6" value="" style="endArrow=none;html=1;rounded=0;strokeColor=#666666;" edge="1" parent="1" source="ATTR-INST-6" target="Izek-PB7fgDzVprNoVY3-41" />
        <mxCell id="ATTR-INST-7" value="Condition" style="ellipse;whiteSpace=wrap;html=1;align=center;fontColor=#000000;fillColor=#dae8fc;strokeColor=#6c8ebf;" vertex="1" parent="1">
          <mxGeometry x="1160" y="830" width="100" height="40" as="geometry" />
        </mxCell>
        <mxCell id="EDGE-INST-7" value="" style="endArrow=none;html=1;rounded=0;strokeColor=#666666;" edge="1" parent="1" source="ATTR-INST-7" target="Izek-PB7fgDzVprNoVY3-41" />
        <mxCell id="ATTR-INST-8" value="Status" style="ellipse;whiteSpace=wrap;html=1;align=center;fontColor=#000000;fillColor=#dae8fc;strokeColor=#6c8ebf;" vertex="1" parent="1">
          <mxGeometry x="1160" y="760" width="100" height="40" as="geometry" />
        </mxCell>
        <mxCell id="EDGE-INST-8" value="" style="endArrow=none;html=1;rounded=0;strokeColor=#666666;" edge="1" parent="1" source="ATTR-INST-8" target="Izek-PB7fgDzVprNoVY3-41" />
        <mxCell id="ATTR-CUST-1" value="&lt;u&gt;Customer_ID&lt;/u&gt;" style="ellipse;whiteSpace=wrap;html=1;align=center;fontColor=#000000;fillColor=#dae8fc;strokeColor=#6c8ebf;" vertex="1" parent="1">
          <mxGeometry x="540" y="460" width="100" height="40" as="geometry" />
        </mxCell>
        <mxCell id="EDGE-CUST-1" value="" style="endArrow=none;html=1;rounded=0;strokeColor=#666666;" edge="1" parent="1" source="ATTR-CUST-1" target="Izek-PB7fgDzVprNoVY3-16" />
        <mxCell id="ATTR-CUST-2" value="Phone_Number" style="ellipse;shape=doubleEllipse;whiteSpace=wrap;html=1;align=center;fontColor=#000000;fillColor=#dae8fc;strokeColor=#6c8ebf;" vertex="1" parent="1">
          <mxGeometry x="480" y="530" width="110" height="50" as="geometry" />
        </mxCell>
        <mxCell id="EDGE-CUST-2" value="" style="endArrow=none;html=1;rounded=0;strokeColor=#666666;" edge="1" parent="1" source="ATTR-CUST-2" target="Izek-PB7fgDzVprNoVY3-16" />
        <mxCell id="ATTR-CUST-3" value="Email_Address" style="ellipse;whiteSpace=wrap;html=1;align=center;fontColor=#000000;fillColor=#dae8fc;strokeColor=#6c8ebf;" vertex="1" parent="1">
          <mxGeometry x="540" y="610" width="100" height="40" as="geometry" />
        </mxCell>
        <mxCell id="EDGE-CUST-3" value="" style="endArrow=none;html=1;rounded=0;strokeColor=#666666;" edge="1" parent="1" source="ATTR-CUST-3" target="Izek-PB7fgDzVprNoVY3-16" />
        <mxCell id="ATTR-CUST-REGDATE" value="Date_of_Registration" style="ellipse;whiteSpace=wrap;html=1;align=center;fontColor=#000000;fillColor=#dae8fc;strokeColor=#6c8ebf;" vertex="1" parent="1">
          <mxGeometry x="850" y="610" width="120" height="40" as="geometry" />
        </mxCell>
        <mxCell id="EDGE-CUST-REGDATE" value="" style="endArrow=none;html=1;rounded=0;strokeColor=#666666;" edge="1" parent="1" source="ATTR-CUST-REGDATE" target="Izek-PB7fgDzVprNoVY3-16" />
        <mxCell id="ATTR-CUST-NAME" value="Name" style="ellipse;whiteSpace=wrap;html=1;align=center;fontColor=#000000;fillColor=#dae8fc;strokeColor=#6c8ebf;" vertex="1" parent="1">
          <mxGeometry x="870" y="400" width="80" height="40" as="geometry" />
        </mxCell>
        <mxCell id="EDGE-CUST-NAME" value="" style="endArrow=none;html=1;rounded=0;strokeColor=#666666;" edge="1" parent="1" source="ATTR-CUST-NAME" target="Izek-PB7fgDzVprNoVY3-16" />
        <mxCell id="ATTR-CUST-FNAME" value="First_Name" style="ellipse;whiteSpace=wrap;html=1;align=center;fontColor=#000000;fillColor=#dae8fc;strokeColor=#6c8ebf;" vertex="1" parent="1">
          <mxGeometry x="980" y="360" width="90" height="30" as="geometry" />
        </mxCell>
        <mxCell id="EDGE-CUST-FNAME" value="" style="endArrow=none;html=1;rounded=0;strokeColor=#666666;" edge="1" parent="1" source="ATTR-CUST-FNAME" target="ATTR-CUST-NAME" />
        <mxCell id="ATTR-CUST-MINIT" value="Middle_Initial" style="ellipse;whiteSpace=wrap;html=1;align=center;fontColor=#000000;fillColor=#dae8fc;strokeColor=#6c8ebf;" vertex="1" parent="1">
          <mxGeometry x="980" y="410" width="90" height="30" as="geometry" />
        </mxCell>
        <mxCell id="EDGE-CUST-MINIT" value="" style="endArrow=none;html=1;rounded=0;strokeColor=#666666;" edge="1" parent="1" source="ATTR-CUST-MINIT" target="ATTR-CUST-NAME" />
        <mxCell id="ATTR-CUST-LNAME" value="Last_Name" style="ellipse;whiteSpace=wrap;html=1;align=center;fontColor=#000000;fillColor=#dae8fc;strokeColor=#6c8ebf;" vertex="1" parent="1">
          <mxGeometry x="980" y="460" width="90" height="30" as="geometry" />
        </mxCell>
        <mxCell id="EDGE-CUST-LNAME" value="" style="endArrow=none;html=1;rounded=0;strokeColor=#666666;" edge="1" parent="1" source="ATTR-CUST-LNAME" target="ATTR-CUST-NAME" />
        <mxCell id="ATTR-CUST-ADDR" value="Address" style="ellipse;whiteSpace=wrap;html=1;align=center;fontColor=#000000;fillColor=#dae8fc;strokeColor=#6c8ebf;" vertex="1" parent="1">
          <mxGeometry x="720" y="680" width="80" height="40" as="geometry" />
        </mxCell>
        <mxCell id="EDGE-CUST-ADDR" value="" style="endArrow=none;html=1;rounded=0;strokeColor=#666666;" edge="1" parent="1" source="ATTR-CUST-ADDR" target="Izek-PB7fgDzVprNoVY3-16" />
        <mxCell id="ATTR-CUST-STNUM" value="Street_Number" style="ellipse;whiteSpace=wrap;html=1;align=center;fontColor=#000000;fillColor=#dae8fc;strokeColor=#6c8ebf;" vertex="1" parent="1">
          <mxGeometry x="530" y="750" width="100" height="30" as="geometry" />
        </mxCell>
        <mxCell id="EDGE-CUST-STNUM" value="" style="endArrow=none;html=1;rounded=0;strokeColor=#666666;" edge="1" parent="1" source="ATTR-CUST-STNUM" target="ATTR-CUST-ADDR" />
        <mxCell id="ATTR-CUST-STNAME" value="Street_Name" style="ellipse;whiteSpace=wrap;html=1;align=center;fontColor=#000000;fillColor=#dae8fc;strokeColor=#6c8ebf;" vertex="1" parent="1">
          <mxGeometry x="640" y="750" width="100" height="30" as="geometry" />
        </mxCell>
        <mxCell id="EDGE-CUST-STNAME" value="" style="endArrow=none;html=1;rounded=0;strokeColor=#666666;" edge="1" parent="1" source="ATTR-CUST-STNAME" target="ATTR-CUST-ADDR" />
        <mxCell id="ATTR-CUST-CITY" value="City" style="ellipse;whiteSpace=wrap;html=1;align=center;fontColor=#000000;fillColor=#dae8fc;strokeColor=#6c8ebf;" vertex="1" parent="1">
          <mxGeometry x="750" y="750" width="90" height="30" as="geometry" />
        </mxCell>
        <mxCell id="EDGE-CUST-CITY" value="" style="endArrow=none;html=1;rounded=0;strokeColor=#666666;" edge="1" parent="1" source="ATTR-CUST-CITY" target="ATTR-CUST-ADDR" />
        <mxCell id="ATTR-CUST-STATE" value="State" style="ellipse;whiteSpace=wrap;html=1;align=center;fontColor=#000000;fillColor=#dae8fc;strokeColor=#6c8ebf;" vertex="1" parent="1">
          <mxGeometry x="850" y="750" width="90" height="30" as="geometry" />
        </mxCell>
        <mxCell id="EDGE-CUST-STATE" value="" style="endArrow=none;html=1;rounded=0;strokeColor=#666666;" edge="1" parent="1" source="ATTR-CUST-STATE" target="ATTR-CUST-ADDR" />
        <mxCell id="ATTR-CUST-ZIP" value="Zip_Code" style="ellipse;whiteSpace=wrap;html=1;align=center;fontColor=#000000;fillColor=#dae8fc;strokeColor=#6c8ebf;" vertex="1" parent="1">
          <mxGeometry x="640" y="800" width="90" height="30" as="geometry" />
        </mxCell>
        <mxCell id="EDGE-CUST-ZIP" value="" style="endArrow=none;html=1;rounded=0;strokeColor=#666666;" edge="1" parent="1" source="ATTR-CUST-ZIP" target="ATTR-CUST-ADDR" />
        <mxCell id="ATTR-CUST-COUNTRY" value="Country" style="ellipse;whiteSpace=wrap;html=1;align=center;fontColor=#000000;fillColor=#dae8fc;strokeColor=#6c8ebf;" vertex="1" parent="1">
          <mxGeometry x="750" y="800" width="90" height="30" as="geometry" />
        </mxCell>
        <mxCell id="EDGE-CUST-COUNTRY" value="" style="endArrow=none;html=1;rounded=0;strokeColor=#666666;" edge="1" parent="1" source="ATTR-CUST-COUNTRY" target="ATTR-CUST-ADDR" />
        <mxCell id="ATTR-EMP-1" value="&lt;u&gt;Employee_ID&lt;/u&gt;" style="ellipse;whiteSpace=wrap;html=1;align=center;fontColor=#000000;fillColor=#dae8fc;strokeColor=#6c8ebf;" vertex="1" parent="1">
          <mxGeometry x="500" y="550" width="100" height="40" as="geometry" />
        </mxCell>
        <mxCell id="EDGE-EMP-1" value="" style="endArrow=none;html=1;rounded=0;strokeColor=#666666;" edge="1" parent="1" source="ATTR-EMP-1" target="Izek-PB7fgDzVprNoVY3-68" />
        <mxCell id="ATTR-EMP-2" value="Date_of_Hire" style="ellipse;whiteSpace=wrap;html=1;align=center;fontColor=#000000;fillColor=#dae8fc;strokeColor=#6c8ebf;" vertex="1" parent="1">
          <mxGeometry x="800" y="550" width="100" height="40" as="geometry" />
        </mxCell>
        <mxCell id="EDGE-EMP-2" value="" style="endArrow=none;html=1;rounded=0;strokeColor=#666666;" edge="1" parent="1" source="ATTR-EMP-2" target="Izek-PB7fgDzVprNoVY3-68" />
        <mxCell id="ATTR-EMP-3" value="Job_Title" style="ellipse;whiteSpace=wrap;html=1;align=center;fontColor=#000000;fillColor=#dae8fc;strokeColor=#6c8ebf;" vertex="1" parent="1">
          <mxGeometry x="830" y="620" width="100" height="40" as="geometry" />
        </mxCell>
        <mxCell id="EDGE-EMP-3" value="" style="endArrow=none;html=1;rounded=0;strokeColor=#666666;" edge="1" parent="1" source="ATTR-EMP-3" target="Izek-PB7fgDzVprNoVY3-68" />
        <mxCell id="ATTR-EMP-4" value="Salary" style="ellipse;whiteSpace=wrap;html=1;align=center;fontColor=#000000;fillColor=#dae8fc;strokeColor=#6c8ebf;" vertex="1" parent="1">
          <mxGeometry x="800" y="690" width="100" height="40" as="geometry" />
        </mxCell>
        <mxCell id="EDGE-EMP-4" value="" style="endArrow=none;html=1;rounded=0;strokeColor=#666666;" edge="1" parent="1" source="ATTR-EMP-4" target="Izek-PB7fgDzVprNoVY3-68" />
        <mxCell id="ATTR-EMP-5" value="Phone_Number" style="ellipse;whiteSpace=wrap;html=1;align=center;fontColor=#000000;fillColor=#dae8fc;strokeColor=#6c8ebf;" vertex="1" parent="1">
          <mxGeometry x="500" y="690" width="100" height="40" as="geometry" />
        </mxCell>
        <mxCell id="EDGE-EMP-5" value="" style="endArrow=none;html=1;rounded=0;strokeColor=#666666;" edge="1" parent="1" source="ATTR-EMP-5" target="Izek-PB7fgDzVprNoVY3-68" />
        <mxCell id="ATTR-EMP-6" value="Email_Address" style="ellipse;whiteSpace=wrap;html=1;align=center;fontColor=#000000;fillColor=#dae8fc;strokeColor=#6c8ebf;" vertex="1" parent="1">
          <mxGeometry x="470" y="620" width="100" height="40" as="geometry" />
        </mxCell>
        <mxCell id="EDGE-EMP-6" value="" style="endArrow=none;html=1;rounded=0;strokeColor=#666666;" edge="1" parent="1" source="ATTR-EMP-6" target="Izek-PB7fgDzVprNoVY3-68" />
        <mxCell id="ATTR-EMP-DOB" value="Date_of_Birth" style="ellipse;whiteSpace=wrap;html=1;align=center;fontColor=#000000;fillColor=#dae8fc;strokeColor=#6c8ebf;" vertex="1" parent="1">
          <mxGeometry x="640" y="500" width="100" height="40" as="geometry" />
        </mxCell>
        <mxCell id="EDGE-EMP-DOB" value="" style="endArrow=none;html=1;rounded=0;strokeColor=#666666;" edge="1" parent="1" source="ATTR-EMP-DOB" target="Izek-PB7fgDzVprNoVY3-68" />
        <mxCell id="ATTR-EMP-AGE" value="Age" style="ellipse;whiteSpace=wrap;html=1;align=center;dashed=1;fontColor=#000000;fillColor=#dae8fc;strokeColor=#6c8ebf;" vertex="1" parent="1">
          <mxGeometry x="670" y="450" width="80" height="40" as="geometry" />
        </mxCell>
        <mxCell id="EDGE-EMP-AGE" value="" style="endArrow=none;html=1;rounded=0;strokeColor=#666666;" edge="1" parent="1" source="ATTR-EMP-AGE" target="Izek-PB7fgDzVprNoVY3-68" />
        <mxCell id="ATTR-EMP-NAME" value="Name" style="ellipse;whiteSpace=wrap;html=1;align=center;fontColor=#000000;fillColor=#dae8fc;strokeColor=#6c8ebf;" vertex="1" parent="1">
          <mxGeometry x="510" y="450" width="80" height="40" as="geometry" />
        </mxCell>
        <mxCell id="EDGE-EMP-NAME" value="" style="endArrow=none;html=1;rounded=0;strokeColor=#666666;" edge="1" parent="1" source="ATTR-EMP-NAME" target="Izek-PB7fgDzVprNoVY3-68" />
        <mxCell id="ATTR-EMP-FNAME" value="First_Name" style="ellipse;whiteSpace=wrap;html=1;align=center;fontColor=#000000;fillColor=#dae8fc;strokeColor=#6c8ebf;" vertex="1" parent="1">
          <mxGeometry x="400" y="420" width="90" height="30" as="geometry" />
        </mxCell>
        <mxCell id="EDGE-EMP-FNAME" value="" style="endArrow=none;html=1;rounded=0;strokeColor=#666666;" edge="1" parent="1" source="ATTR-EMP-FNAME" target="ATTR-EMP-NAME" />
        <mxCell id="ATTR-EMP-LNAME" value="Last_Name" style="ellipse;whiteSpace=wrap;html=1;align=center;fontColor=#000000;fillColor=#dae8fc;strokeColor=#6c8ebf;" vertex="1" parent="1">
          <mxGeometry x="400" y="470" width="90" height="30" as="geometry" />
        </mxCell>
        <mxCell id="EDGE-EMP-LNAME" value="" style="endArrow=none;html=1;rounded=0;strokeColor=#666666;" edge="1" parent="1" source="ATTR-EMP-LNAME" target="ATTR-EMP-NAME" />
        <mxCell id="ATTR-REP-1" value="&lt;u&gt;Repair_ID&lt;/u&gt;" style="ellipse;whiteSpace=wrap;html=1;align=center;fontColor=#000000;fillColor=#dae8fc;strokeColor=#6c8ebf;" vertex="1" parent="1">
          <mxGeometry x="540" y="180" width="100" height="40" as="geometry" />
        </mxCell>
        <mxCell id="EDGE-REP-1" value="" style="endArrow=none;html=1;rounded=0;strokeColor=#666666;" edge="1" parent="1" source="ATTR-REP-1" target="Izek-PB7fgDzVprNoVY3-17" />
        <mxCell id="ATTR-REP-2" value="Request_Date" style="ellipse;whiteSpace=wrap;html=1;align=center;fontColor=#000000;fillColor=#dae8fc;strokeColor=#6c8ebf;" vertex="1" parent="1">
          <mxGeometry x="840" y="180" width="100" height="40" as="geometry" />
        </mxCell>
        <mxCell id="EDGE-REP-2" value="" style="endArrow=none;html=1;rounded=0;strokeColor=#666666;" edge="1" parent="1" source="ATTR-REP-2" target="Izek-PB7fgDzVprNoVY3-17" />
        <mxCell id="ATTR-REP-3" value="Start_Date" style="ellipse;whiteSpace=wrap;html=1;align=center;fontColor=#000000;fillColor=#dae8fc;strokeColor=#6c8ebf;" vertex="1" parent="1">
          <mxGeometry x="890" y="250" width="100" height="40" as="geometry" />
        </mxCell>
        <mxCell id="EDGE-REP-3" value="" style="endArrow=none;html=1;rounded=0;strokeColor=#666666;" edge="1" parent="1" source="ATTR-REP-3" target="Izek-PB7fgDzVprNoVY3-17" />
        <mxCell id="ATTR-REP-4" value="Completion_Date" style="ellipse;whiteSpace=wrap;html=1;align=center;fontColor=#000000;fillColor=#dae8fc;strokeColor=#6c8ebf;" vertex="1" parent="1">
          <mxGeometry x="890" y="320" width="110" height="40" as="geometry" />
        </mxCell>
        <mxCell id="EDGE-REP-4" value="" style="endArrow=none;html=1;rounded=0;strokeColor=#666666;" edge="1" parent="1" source="ATTR-REP-4" target="Izek-PB7fgDzVprNoVY3-17" />
        <mxCell id="ATTR-REP-5" value="Problem_Desc" style="ellipse;whiteSpace=wrap;html=1;align=center;fontColor=#000000;fillColor=#dae8fc;strokeColor=#6c8ebf;" vertex="1" parent="1">
          <mxGeometry x="840" y="110" width="100" height="40" as="geometry" />
        </mxCell>
        <mxCell id="EDGE-REP-5" value="" style="endArrow=none;html=1;rounded=0;strokeColor=#666666;" edge="1" parent="1" source="ATTR-REP-5" target="Izek-PB7fgDzVprNoVY3-17" />
        <mxCell id="ATTR-REP-6" value="Work_Performed" style="ellipse;whiteSpace=wrap;html=1;align=center;fontColor=#000000;fillColor=#dae8fc;strokeColor=#6c8ebf;" vertex="1" parent="1">
          <mxGeometry x="540" y="110" width="110" height="40" as="geometry" />
        </mxCell>
        <mxCell id="EDGE-REP-6" value="" style="endArrow=none;html=1;rounded=0;strokeColor=#666666;" edge="1" parent="1" source="ATTR-REP-6" target="Izek-PB7fgDzVprNoVY3-17" />
        <mxCell id="ATTR-REP-7" value="Labor_Cost" style="ellipse;whiteSpace=wrap;html=1;align=center;fontColor=#000000;fillColor=#dae8fc;strokeColor=#6c8ebf;" vertex="1" parent="1">
          <mxGeometry x="480" y="250" width="100" height="40" as="geometry" />
        </mxCell>
        <mxCell id="EDGE-REP-7" value="" style="endArrow=none;html=1;rounded=0;strokeColor=#666666;" edge="1" parent="1" source="ATTR-REP-7" target="Izek-PB7fgDzVprNoVY3-17" />
        <mxCell id="ATTR-REP-8" value="Parts_Cost" style="ellipse;whiteSpace=wrap;html=1;align=center;fontColor=#000000;fillColor=#dae8fc;strokeColor=#6c8ebf;" vertex="1" parent="1">
          <mxGeometry x="480" y="320" width="100" height="40" as="geometry" />
        </mxCell>
        <mxCell id="EDGE-REP-8" value="" style="endArrow=none;html=1;rounded=0;strokeColor=#666666;" edge="1" parent="1" source="ATTR-REP-8" target="Izek-PB7fgDzVprNoVY3-17" />
        <mxCell id="ATTR-REP-9" value="Total_Repair_Cost" style="ellipse;whiteSpace=wrap;html=1;align=center;dashed=1;fontColor=#000000;fillColor=#dae8fc;strokeColor=#6c8ebf;" vertex="1" parent="1">
          <mxGeometry x="670" y="60" width="120" height="40" as="geometry" />
        </mxCell>
        <mxCell id="EDGE-REP-9" value="" style="endArrow=none;html=1;rounded=0;strokeColor=#666666;" edge="1" parent="1" source="ATTR-REP-9" target="Izek-PB7fgDzVprNoVY3-17" />
        <mxCell id="ATTR-REP-10" value="Repair_Status" style="ellipse;whiteSpace=wrap;html=1;align=center;fontColor=#000000;fillColor=#dae8fc;strokeColor=#6c8ebf;" vertex="1" parent="1">
          <mxGeometry x="670" y="190" width="100" height="40" as="geometry" />
        </mxCell>
        <mxCell id="EDGE-REP-10" value="" style="endArrow=none;html=1;rounded=0;strokeColor=#666666;" edge="1" parent="1" source="ATTR-REP-10" target="Izek-PB7fgDzVprNoVY3-17" />
        <mxCell id="ATTR-SALE-1" value="&lt;u&gt;Sale_ID&lt;/u&gt;" style="ellipse;whiteSpace=wrap;html=1;align=center;fontColor=#000000;fillColor=#dae8fc;strokeColor=#6c8ebf;" vertex="1" parent="1">
          <mxGeometry x="1040" y="460" width="100" height="40" as="geometry" />
        </mxCell>
        <mxCell id="EDGE-SALE-1" value="" style="endArrow=none;html=1;rounded=0;strokeColor=#666666;" edge="1" parent="1" source="ATTR-SALE-1" target="Izek-PB7fgDzVprNoVY3-15" />
        <mxCell id="ATTR-SALE-2" value="Sale_Date" style="ellipse;whiteSpace=wrap;html=1;align=center;fontColor=#000000;fillColor=#dae8fc;strokeColor=#6c8ebf;" vertex="1" parent="1">
          <mxGeometry x="1240" y="460" width="100" height="40" as="geometry" />
        </mxCell>
        <mxCell id="EDGE-SALE-2" value="" style="endArrow=none;html=1;rounded=0;strokeColor=#666666;" edge="1" parent="1" source="ATTR-SALE-2" target="Izek-PB7fgDzVprNoVY3-15" />
        <mxCell id="ATTR-SALE-3" value="Sale_Time" style="ellipse;whiteSpace=wrap;html=1;align=center;fontColor=#000000;fillColor=#dae8fc;strokeColor=#6c8ebf;" vertex="1" parent="1">
          <mxGeometry x="1320" y="530" width="100" height="40" as="geometry" />
        </mxCell>
        <mxCell id="EDGE-SALE-3" value="" style="endArrow=none;html=1;rounded=0;strokeColor=#666666;" edge="1" parent="1" source="ATTR-SALE-3" target="Izek-PB7fgDzVprNoVY3-15" />
        <mxCell id="ATTR-SALE-4" value="Total_Amount" style="ellipse;whiteSpace=wrap;html=1;align=center;fontColor=#000000;fillColor=#dae8fc;strokeColor=#6c8ebf;" vertex="1" parent="1">
          <mxGeometry x="1240" y="610" width="100" height="40" as="geometry" />
        </mxCell>
        <mxCell id="EDGE-SALE-4" value="" style="endArrow=none;html=1;rounded=0;strokeColor=#666666;" edge="1" parent="1" source="ATTR-SALE-4" target="Izek-PB7fgDzVprNoVY3-15" />
        <mxCell id="ATTR-SALE-5" value="Payment_Method" style="ellipse;whiteSpace=wrap;html=1;align=center;fontColor=#000000;fillColor=#dae8fc;strokeColor=#6c8ebf;" vertex="1" parent="1">
          <mxGeometry x="1040" y="610" width="110" height="40" as="geometry" />
        </mxCell>
        <mxCell id="EDGE-SALE-5" value="" style="endArrow=none;html=1;rounded=0;strokeColor=#666666;" edge="1" parent="1" source="ATTR-SALE-5" target="Izek-PB7fgDzVprNoVY3-15" />
        <mxCell id="ATTR-SALE-6" value="Discount_Applied" style="ellipse;whiteSpace=wrap;html=1;align=center;fontColor=#000000;fillColor=#dae8fc;strokeColor=#6c8ebf;" vertex="1" parent="1">
          <mxGeometry x="1160" y="380" width="110" height="40" as="geometry" />
        </mxCell>
        <mxCell id="EDGE-SALE-6" value="" style="endArrow=none;html=1;rounded=0;strokeColor=#666666;" edge="1" parent="1" source="ATTR-SALE-6" target="Izek-PB7fgDzVprNoVY3-15" />
        <mxCell id="ATTR-SALE-7" value="Sale_Status" style="ellipse;whiteSpace=wrap;html=1;align=center;fontColor=#000000;fillColor=#dae8fc;strokeColor=#6c8ebf;" vertex="1" parent="1">
          <mxGeometry x="1160" y="670" width="100" height="40" as="geometry" />
        </mxCell>
        <mxCell id="EDGE-SALE-7" value="" style="endArrow=none;html=1;rounded=0;strokeColor=#666666;" edge="1" parent="1" source="ATTR-SALE-7" target="Izek-PB7fgDzVprNoVY3-15" />
        <mxCell id="ATTR-COMP-1" value="&lt;u&gt;Company_ID&lt;/u&gt;" style="ellipse;whiteSpace=wrap;html=1;align=center;fontColor=#000000;fillColor=#dae8fc;strokeColor=#6c8ebf;" vertex="1" parent="1">
          <mxGeometry x="780" y="800" width="100" height="40" as="geometry" />
        </mxCell>
        <mxCell id="EDGE-COMP-1" value="" style="endArrow=none;html=1;rounded=0;strokeColor=#666666;" edge="1" parent="1" source="ATTR-COMP-1" target="Izek-PB7fgDzVprNoVY3-57" />
        <mxCell id="ATTR-COMP-2" value="Company_Name" style="ellipse;whiteSpace=wrap;html=1;align=center;fontColor=#000000;fillColor=#dae8fc;strokeColor=#6c8ebf;" vertex="1" parent="1">
          <mxGeometry x="780" y="930" width="100" height="40" as="geometry" />
        </mxCell>
        <mxCell id="EDGE-COMP-2" value="" style="endArrow=none;html=1;rounded=0;strokeColor=#666666;" edge="1" parent="1" source="ATTR-COMP-2" target="Izek-PB7fgDzVprNoVY3-57" />
        <mxCell id="ATTR-COMP-3" value="Phone_Number" style="ellipse;whiteSpace=wrap;html=1;align=center;fontColor=#000000;fillColor=#dae8fc;strokeColor=#6c8ebf;" vertex="1" parent="1">
          <mxGeometry x="870" y="980" width="100" height="40" as="geometry" />
        </mxCell>
        <mxCell id="EDGE-COMP-3" value="" style="endArrow=none;html=1;rounded=0;strokeColor=#666666;" edge="1" parent="1" source="ATTR-COMP-3" target="Izek-PB7fgDzVprNoVY3-57" />
        <mxCell id="ATTR-COMP-4" value="Email_Address" style="ellipse;whiteSpace=wrap;html=1;align=center;fontColor=#000000;fillColor=#dae8fc;strokeColor=#6c8ebf;" vertex="1" parent="1">
          <mxGeometry x="990" y="980" width="100" height="40" as="geometry" />
        </mxCell>
        <mxCell id="EDGE-COMP-4" value="" style="endArrow=none;html=1;rounded=0;strokeColor=#666666;" edge="1" parent="1" source="ATTR-COMP-4" target="Izek-PB7fgDzVprNoVY3-57" />
        <mxCell id="ATTR-COMP-5" value="Website" style="ellipse;whiteSpace=wrap;html=1;align=center;fontColor=#000000;fillColor=#dae8fc;strokeColor=#6c8ebf;" vertex="1" parent="1">
          <mxGeometry x="1080" y="930" width="100" height="40" as="geometry" />
        </mxCell>
        <mxCell id="EDGE-COMP-5" value="" style="endArrow=none;html=1;rounded=0;strokeColor=#666666;" edge="1" parent="1" source="ATTR-COMP-5" target="Izek-PB7fgDzVprNoVY3-57" />
        <mxCell id="ATTR-COMP-ADDR" value="Address" style="ellipse;whiteSpace=wrap;html=1;align=center;fontColor=#000000;fillColor=#dae8fc;strokeColor=#6c8ebf;" vertex="1" parent="1">
          <mxGeometry x="1080" y="800" width="80" height="40" as="geometry" />
        </mxCell>
        <mxCell id="EDGE-COMP-ADDR" value="" style="endArrow=none;html=1;rounded=0;strokeColor=#666666;" edge="1" parent="1" source="ATTR-COMP-ADDR" target="Izek-PB7fgDzVprNoVY3-57" />
        <mxCell id="ATTR-COMP-STNUM" value="Street_Number" style="ellipse;whiteSpace=wrap;html=1;align=center;fontColor=#000000;fillColor=#dae8fc;strokeColor=#6c8ebf;" vertex="1" parent="1">
          <mxGeometry x="1190" y="760" width="90" height="30" as="geometry" />
        </mxCell>
        <mxCell id="EDGE-COMP-STNUM" value="" style="endArrow=none;html=1;rounded=0;strokeColor=#666666;" edge="1" parent="1" source="ATTR-COMP-STNUM" target="ATTR-COMP-ADDR" />
        <mxCell id="ATTR-COMP-STNAME" value="Street_Name" style="ellipse;whiteSpace=wrap;html=1;align=center;fontColor=#000000;fillColor=#dae8fc;strokeColor=#6c8ebf;" vertex="1" parent="1">
          <mxGeometry x="1190" y="800" width="90" height="30" as="geometry" />
        </mxCell>
        <mxCell id="EDGE-COMP-STNAME" value="" style="endArrow=none;html=1;rounded=0;strokeColor=#666666;" edge="1" parent="1" source="ATTR-COMP-STNAME" target="ATTR-COMP-ADDR" />
        <mxCell id="ATTR-COMP-CITY" value="City" style="ellipse;whiteSpace=wrap;html=1;align=center;fontColor=#000000;fillColor=#dae8fc;strokeColor=#6c8ebf;" vertex="1" parent="1">
          <mxGeometry x="1190" y="840" width="90" height="30" as="geometry" />
        </mxCell>
        <mxCell id="EDGE-COMP-CITY" value="" style="endArrow=none;html=1;rounded=0;strokeColor=#666666;" edge="1" parent="1" source="ATTR-COMP-CITY" target="ATTR-COMP-ADDR" />
      </root>
    </mxGraphModel>
  </diagram>
</mxfile>
